<?xml version="1.0" encoding="utf-8"?>
<!-- Generator: Adobe Illustrator 27.5.0, SVG Export Plug-In . SVG Version: 6.00 Build 0)  -->
<svg version="1.1" xmlns="http://www.w3.org/2000/svg" xmlns:xlink="http://www.w3.org/1999/xlink" x="0px" y="0px"
	 viewBox="0 0 500 500" style="enable-background:new 0 0 500 500;" xml:space="preserve">
<g id="BACKGROUND">
	<rect x="0.799" style="fill:#FFFFFF;" width="499.201" height="500"/>
</g>
<g id="OBJECTS">
	<g>
		<g>
			<g>
				
					<rect x="239.693" y="112.288" style="fill:none;stroke:#DEE1E8;stroke-width:0.9585;stroke-miterlimit:10;" width="203.799" height="171.986"/>
				
					<rect x="231.808" y="104.183" style="fill:none;stroke:#DEE1E8;stroke-width:0.9585;stroke-miterlimit:10;" width="220.631" height="187.219"/>
				
					<rect x="222.123" y="87.513" style="fill:none;stroke:#DEE1E8;stroke-width:0.9585;stroke-miterlimit:10;" width="240.009" height="16.744"/>
				
					<line style="fill:none;stroke:#DEE1E8;stroke-width:0.9585;stroke-miterlimit:10;" x1="340.944" y1="112.288" x2="340.944" y2="284.275"/>
			</g>
		</g>
		<g>
			
				<ellipse transform="matrix(0.2242 -0.9745 0.9745 0.2242 1.2636 184.0051)" style="fill:none;stroke:#DEE1E8;stroke-width:0.9585;stroke-miterlimit:10;" cx="116.207" cy="91.209" rx="24.487" ry="24.487"/>
			<polyline style="fill:none;stroke:#DEE1E8;stroke-width:0.9585;stroke-miterlimit:10;" points="116.207,80.74 116.207,91.209 
				132.74,91.209 			"/>
		</g>
		<g>
			<g>
				
					<rect x="54.088" y="170.137" style="fill:none;stroke:#DEE1E8;stroke-width:0.9585;stroke-miterlimit:10;" width="124.331" height="8.021"/>
				<polygon style="fill:none;stroke:#DEE1E8;stroke-width:0.9585;stroke-miterlimit:10;" points="62.241,178.158 63.051,191.066 
					66.29,191.066 67.37,178.158 				"/>
				<polygon style="fill:none;stroke:#DEE1E8;stroke-width:0.9585;stroke-miterlimit:10;" points="162.367,178.158 163.177,191.066 
					166.416,191.066 167.496,178.158 				"/>
			</g>
			
				<rect x="75.919" y="156.479" style="fill:none;stroke:#DEE1E8;stroke-width:0.9585;stroke-miterlimit:10;" width="14.504" height="13.658"/>
			
				<rect x="97.248" y="144.108" style="fill:none;stroke:#DEE1E8;stroke-width:0.9585;stroke-miterlimit:10;" width="8.247" height="26.029"/>
			
				<rect x="105.495" y="144.108" style="fill:none;stroke:#DEE1E8;stroke-width:0.9585;stroke-miterlimit:10;" width="8.247" height="26.029"/>
			
				<rect x="119.22" y="143.15" transform="matrix(0.9054 -0.4246 0.4246 0.9054 -54.633 67.1403)" style="fill:none;stroke:#DEE1E8;stroke-width:0.9585;stroke-miterlimit:10;" width="8.247" height="26.029"/>
			
				<rect x="97.248" y="153.92" style="fill:none;stroke:#DEE1E8;stroke-width:0.9585;stroke-miterlimit:10;" width="8.247" height="5.403"/>
			<path style="fill:none;stroke:#DEE1E8;stroke-width:0.9585;stroke-miterlimit:10;" d="M122.367,150.422
				c0,0.91-0.738,1.647-1.647,1.647c-0.91,0-1.647-0.738-1.647-1.647c0-0.91,0.738-1.647,1.647-1.647
				C121.63,148.775,122.367,149.512,122.367,150.422z"/>
		</g>
		
			<line style="fill:none;stroke:#DEE1E8;stroke-width:0.9719;stroke-miterlimit:10;" x1="20.909" y1="400.285" x2="471.695" y2="400.285"/>
	</g>
	<g>
		<g>
			<g>
				<polygon style="fill:#EBBFA2;" points="412.63,346.78 414.904,397.978 420.727,397.978 424.808,346.78 				"/>
				<polygon style="fill:#EBBFA2;" points="419.782,392.129 435.144,397.978 433.209,398.843 414.904,398.843 414.904,394.406 				
					"/>
				<path style="fill:#121932;" d="M414.745,394.397c0,0,4.366,5.057,13.015,0.77c0,0,7.059,1.601,9.097,3.904
					c0.334,0.377,0.071,0.971-0.432,0.971l-20.786,0.072c-0.493,0.002-0.893-0.397-0.893-0.89V394.397z"/>
			</g>
			<g>
				<g>
					<polygon style="fill:#EBBFA2;" points="413.342,346.78 414.586,397.978 408.762,397.978 401.165,346.78 					"/>
					<polygon style="fill:#EBBFA2;" points="409.708,392.129 394.346,397.978 396.281,398.843 414.586,398.843 414.586,394.406 
											"/>
					<path style="fill:#121932;" d="M414.745,394.397c0,0-4.367,5.057-13.016,0.77c0,0-7.059,1.601-9.096,3.904
						c-0.334,0.377-0.071,0.971,0.432,0.971l20.786,0.072c0.493,0.002,0.894-0.397,0.894-0.89V394.397z"/>
				</g>
				
					<line style="fill:none;stroke:#D09680;stroke-width:0.6592;stroke-miterlimit:10;" x1="413.342" y1="346.78" x2="414.745" y2="394.397"/>
			</g>
			<path style="fill:#3A4079;" d="M396.108,258.116c0,0-7.25,10.079-8.261,21.607c-1.012,11.528,2.606,67.937,2.606,67.937h46.49
				c0,0,2.658-61.8-3.769-75.273c-5.118-10.728-13.325-14.416-13.325-14.416L396.108,258.116z"/>
		</g>
		<g>
			<path style="fill:#D164B4;" d="M384.28,222.799l-10.143,32.862l-22.885-1.82c0,0,5.243,9,5.585,8.209
				c0.27-0.626,20.222,6.838,26.189,3.385c1.655-0.957,2.863-2.521,3.376-4.363l5.902-21.106L384.28,222.799z"/>
			<g>
				<path style="fill:#DD73BC;" d="M424.156,217.946c-3.678-1.676-8.538-1.202-8.538-1.202l-12.989,0.462l-9.871,1.099
					c-3.125-0.121-6.856,1.561-8.478,4.494l2.689,10.106c-0.797,1.964-1.264,4.378-0.504,6.899c0.761,2.527,2.625,4.077,4.536,5.036
					l5.107,13.274l23.556,1.081l4.579-24.387L424.156,217.946z"/>
				<path style="fill:#EBBFA2;" d="M394.193,218.146c0,0,11.594-1.479,21.425-1.402c0,0-1.254,7.462-11.357,7.837
					C394.159,224.956,394.193,218.146,394.193,218.146z"/>
			</g>
			<g>
				<path style="fill:#EBBFA2;" d="M376.606,262.087c0,0-0.698,10.668,16.24,1.548l18.898-5.472l-3.553-5.034l-12.14,3.257
					l-13.818,5.064L376.606,262.087z"/>
				<path style="fill:#DD73BC;" d="M429.493,224.959c-0.358-4.858-5.337-7.013-5.337-7.013l-9.823,10.782l4.9,18.399l-22.184,9.169
					l1.258,10.31l20.574-5.876c4.509-1.532,12.613-4.54,12.613-8.587L429.493,224.959z"/>
				<polyline style="fill:none;stroke:#D164B4;stroke-width:0.9825;stroke-miterlimit:10;" points="406.318,251.892 
					419.233,247.127 415.811,230.632 				"/>
			</g>
			<g>
				<g>
					<path style="fill:#DCDBDD;" d="M405.378,253.779l-21.747,8.782l-36.148,0.23c-0.818,0.005-1.574-0.431-1.978-1.142
						l-18.347-26.948c-0.832-1.462,0.168-3.288,1.848-3.374l33.516-1.727c0.872-0.045,1.693,0.417,2.106,1.187l18.178,28.204
						l21.41-8.172c0.881-0.336,1.859,0.163,2.104,1.074l0,0C406.527,252.668,406.123,253.478,405.378,253.779z"/>
				</g>
				<path style="fill:#FFFFFF;" d="M356.391,245.335c0.956,1.867,0.392,4.066-1.26,4.912c-1.652,0.846-3.766,0.018-4.722-1.849
					c-0.956-1.867-0.392-4.066,1.26-4.912C353.321,242.64,355.435,243.468,356.391,245.335z"/>
			</g>
		</g>
		<g>
			<path style="fill:#D09680;" d="M383.496,197.574c-0.035,2.275,1.781,4.147,4.056,4.182c2.275,0.035,4.147-1.781,4.182-4.056
				c0.035-2.275-1.781-4.147-4.056-4.182C385.403,193.484,383.531,195.299,383.496,197.574z"/>
			<path style="fill:#301604;" d="M427.956,168.792c4.718,4.718,4.718,12.367,0,17.084c-4.718,4.718-12.367,4.718-17.085,0
				c-4.718-4.718-4.718-12.367,0-17.084C415.589,164.074,423.238,164.074,427.956,168.792z"/>
			
				<ellipse transform="matrix(0.4405 -0.8978 0.8978 0.4405 52.5155 465.9935)" style="fill:#43281F;" cx="400.102" cy="190.866" rx="15.708" ry="15.708"/>
			<g>
				<path style="fill:#EBBFA2;" d="M408.001,207.984l0.192,9.053c0.05,2.334-1.802,4.266-4.136,4.316l0,0
					c-2.334,0.049-4.266-1.802-4.316-4.136l-0.192-9.053L408.001,207.984z"/>
				<path style="fill:#D09680;" d="M408.818,205.856c0.007,0.329-0.887,9.342-9.115,9.517l-0.153-7.209L408.818,205.856z"/>
			</g>
			<g>
				<g>
					<g>
						<path style="fill:#EBBFA2;" d="M398.74,212.272l0.482,0.007c7.138,0.109,13.012-5.589,13.122-12.726l0.241-13.749
							c0.028-1.848-1.447-3.368-3.294-3.396l-16.095-2.392c-3.3-0.051-6.931,4.715-6.982,8.015l-0.201,11.119
							C385.904,206.288,391.602,212.163,398.74,212.272z"/>
					</g>
				</g>
			</g>
			<g>
				
					<path style="fill:none;stroke:#121932;stroke-width:1.6854;stroke-linecap:round;stroke-linejoin:round;stroke-miterlimit:10;" d="
					M399.296,192.48"/>
			</g>
			<path style="fill:#43281F;" d="M406.102,178.365c-1.436-0.231-2.776-0.305-4.029-0.265l0.168-0.075
				c-21.191-1.715-16.229,13.364-16.229,13.364c2.214-1.103,3.451-2.387,4.144-3.615c2.296,2.237,7.135,5.339,16.493,5.822
				c0.705,2.492,2.268,5.159,5.695,5.957l0.944-6.035h0h0C413.288,193.518,418.327,180.33,406.102,178.365z"/>
			<g>
				<path style="fill:#1F2326;" d="M397.038,198.699c0.035,0.488,0.459,0.855,0.947,0.82c0.488-0.035,0.855-0.459,0.819-0.947
					c-0.035-0.488-0.459-0.855-0.947-0.82C397.37,197.788,397.003,198.212,397.038,198.699z"/>
				<path style="fill:#1F2326;" d="M388.536,198.634c0.035,0.488,0.459,0.855,0.947,0.82c0.488-0.035,0.855-0.459,0.819-0.947
					c-0.035-0.488-0.459-0.855-0.947-0.819C388.868,197.723,388.501,198.147,388.536,198.634z"/>
				
					<path style="fill:none;stroke:#CD9380;stroke-width:0.7059;stroke-linecap:round;stroke-linejoin:round;stroke-miterlimit:10;" d="
					M391.981,199.456l-0.197,3.042c0,0,0.15,1.339,2.056,0.824"/>
				<path style="fill:#1F2326;" d="M400.304,196.049c-0.053,0.009-0.108,0.012-0.165,0.01l-4.006-0.169
					c-0.447-0.019-0.794-0.397-0.776-0.844c0.018-0.447,0.394-0.793,0.845-0.776l4.006,0.169c0.447,0.019,0.794,0.397,0.776,0.844
					C400.967,195.674,400.676,195.989,400.304,196.049z"/>
				<path style="fill:#1F2326;" d="M390.252,195.833c-0.053,0.009-0.108,0.012-0.164,0.01l-2.449-0.103
					c-0.448-0.019-0.795-0.397-0.776-0.844c0.018-0.448,0.397-0.795,0.844-0.776l2.449,0.103c0.448,0.019,0.795,0.397,0.776,0.844
					C390.916,195.458,390.624,195.773,390.252,195.833z"/>
				
					<path style="fill:none;stroke:#CD9380;stroke-width:0.7059;stroke-linecap:round;stroke-linejoin:round;stroke-miterlimit:10;" d="
					M390.305,205.057c0,0,3.385,2.557,8.502,0"/>
			</g>
			<path style="fill:#EBBFA2;" d="M409.106,197.574c-0.035,2.275,1.781,4.147,4.056,4.182c2.275,0.035,4.147-1.781,4.182-4.056
				c0.035-2.275-1.781-4.147-4.056-4.182C411.013,193.484,409.141,195.299,409.106,197.574z"/>
			
				<path style="fill:none;stroke:#DD73BC;stroke-width:0.9692;stroke-linecap:round;stroke-linejoin:round;stroke-miterlimit:10;" d="
				M407.506,177.171c0,0,6.494,1.965,8.004,10.625"/>
		</g>
	</g>
	<g>
		<g>
			<path d="M305.361,353.492h-49.053c-2.288,0-4.143-1.855-4.143-4.142l0,0c0-2.288,1.855-4.142,4.143-4.142h49.053
				c2.288,0,4.142,1.855,4.142,4.142l0,0C309.503,351.638,307.648,353.492,305.361,353.492z"/>
			<g>
				
					<rect x="289.673" y="377.663" transform="matrix(6.123234e-17 -1 1 6.123234e-17 -102.8196 686.3384)" width="4.172" height="33.832"/>
				<path d="M278.766,395.827c0.359,2.166-1.106,4.214-3.272,4.573c-2.166,0.359-4.214-1.106-4.573-3.272
					c-0.359-2.166,1.106-4.214,3.272-4.573C276.359,392.196,278.407,393.661,278.766,395.827z"/>
				<rect x="289.474" y="350.771" width="4.172" height="43.429"/>
				<path d="M312.598,395.827c0.359,2.166-1.106,4.214-3.272,4.573c-2.166,0.359-4.214-1.106-4.573-3.272
					c-0.359-2.166,1.106-4.214,3.272-4.573C310.191,392.196,312.238,393.661,312.598,395.827z"/>
			</g>
			<path style="fill:#1F2326;" d="M318.215,353.492h-46.345c-3.161,0-5.434-3.094-4.539-6.179l22.132-76.291
				c0.594-2.047,2.441-3.452,4.539-3.452h46.346c3.161,0,5.434,3.094,4.539,6.179l-22.132,76.291
				C322.159,352.087,320.312,353.492,318.215,353.492z"/>
			<path style="fill:#5D46F1;" d="M311.838,353.492h-40.369c-3.161,0-5.434-3.094-4.539-6.179l22.132-76.291
				c0.594-2.047,2.441-3.452,4.539-3.452h40.368c3.161,0,5.434,3.094,4.539,6.179l-22.132,76.291
				C315.782,352.087,313.935,353.492,311.838,353.492z"/>
			<path style="fill:#1F2326;" d="M318.202,353.492h-49.053c-2.288,0-4.142-1.855-4.142-4.142l0,0c0-2.288,1.855-4.142,4.142-4.142
				h49.053c2.288,0,4.142,1.855,4.142,4.142l0,0C322.345,351.638,320.49,353.492,318.202,353.492z"/>
		</g>
		<g>
			<g>
				<polygon style="fill:#D8A88A;" points="250.89,302.552 220.206,308.484 221.442,316.233 259.91,317.6 268.678,301.08 				"/>
				<path style="fill:#D8A88A;" d="M250.679,283.582l-4.271,21.865c0,0,15.618,11.166,15.307,10.233
					c-0.311-0.933,3.309-32.099,3.309-32.099H250.679z"/>
				<path style="fill:#E49E26;" d="M265.025,263.264c0,0-10.227-1.364-14.465,10.358c-4.238,11.721-4.444,13.778-4.444,13.778
					l16.374,2.382L265.025,263.264z"/>
				
					<line style="fill:none;stroke:#CD9380;stroke-width:0.75;stroke-linecap:round;stroke-linejoin:round;stroke-miterlimit:10;" x1="247.391" y1="303.418" x2="251.872" y2="303.418"/>
			</g>
			<g>
				<polygon style="fill:#E49E26;" points="259.849,276.56 257.92,318.767 303.748,318.767 296.141,270.18 279.026,260.795 
					265.025,263.264 				"/>
				
					<line style="fill:none;stroke:#D38B23;stroke-width:0.9825;stroke-miterlimit:10;" x1="257.714" y1="309.753" x2="260.257" y2="276.27"/>
			</g>
			<g>
				<path style="fill:#E49E26;" d="M279.026,260.795c0,0,13.358-6.246,18.704,0c5.347,6.246,10.899,19.407,10.899,19.407
					l-17.685,5.617L279.026,260.795z"/>
				<polyline style="fill:none;stroke:#D38B23;stroke-width:0.9825;stroke-miterlimit:10;" points="290.944,285.82 287.841,286.931 
					283.012,274.795 				"/>
				<polygon style="fill:#E4BB9E;" points="290.944,285.82 301.427,309.34 315.46,297.126 308.629,280.202 				"/>
				<path style="fill:#E4BB9E;" d="M299.856,305.414l-33.123,7.069l1.329,6.284l38.866,0.995c0,0,18.805-4.179,8.532-22.636
					L299.856,305.414z"/>
				<path style="fill:#E4BB9E;" d="M266.734,312.483c0,0-16.197-6.339-20.618,3.359l0.293,3.92L272.433,321L266.734,312.483z"/>
				
					<line style="fill:none;stroke:#CD9380;stroke-width:0.75;stroke-linecap:round;stroke-linejoin:round;stroke-miterlimit:10;" x1="299.856" y1="305.414" x2="307.693" y2="304.329"/>
			</g>
		</g>
		<g>
			<g>
				<path style="fill:#E4BB9E;" d="M277.689,249.819l1.695,9.131c0.822,4.425-2.203,8.644-6.657,9.287l-0.249,0.036
					c-4.208,0.607-8.145-2.216-8.92-6.397l-1.98-10.688l14.068-6.405L277.689,249.819z"/>
				<path style="fill:#CD9380;" d="M263.746,262.658c0,0,13.369-0.519,8.814-17.877l-3.882,3.423l-5.908,10.081L263.746,262.658z"/>
			</g>
			<path style="fill:#CD9380;" d="M247.485,245.465c0.18,2.14,2.061,3.729,4.201,3.549c2.14-0.18,3.729-2.061,3.549-4.201
				c-0.18-2.14-2.061-3.729-4.201-3.549C248.895,241.444,247.306,243.325,247.485,245.465z"/>
			<path style="fill:#E4BB9E;" d="M262.814,259.167l0.429-0.036c6.345-0.533,11.056-6.109,10.523-12.454l-1.09-12.971
				c-0.138-1.642-1.581-2.862-3.224-2.724l-15.121,1.271c-2.933,0.247-5.111,2.824-4.865,5.758l0.894,10.634
				C250.893,254.988,256.469,259.7,262.814,259.167z"/>
			<g>
				<path style="fill:#1F2326;" d="M260.113,242.89c0.083,0.513,0.567,0.861,1.079,0.777c0.513-0.083,0.861-0.567,0.777-1.079
					c-0.083-0.513-0.567-0.861-1.079-0.778C260.378,241.894,260.03,242.377,260.113,242.89z"/>
				<path style="fill:#1F2326;" d="M252.098,243.538c0.083,0.513,0.567,0.861,1.079,0.777c0.513-0.083,0.861-0.567,0.778-1.079
					c-0.083-0.513-0.567-0.861-1.079-0.777C252.362,242.543,252.014,243.026,252.098,243.538z"/>
				
					<path style="fill:none;stroke:#CD9380;stroke-width:0.75;stroke-linecap:round;stroke-linejoin:round;stroke-miterlimit:10;" d="
					M255.804,243.41l0.097,3.91c0,0,0.286,1.402,2.254,0.677"/>
				<path style="fill:#1F2326;" d="M263.318,239.775c-0.055,0.014-0.114,0.023-0.173,0.026l-4.255,0.201
					c-0.475,0.022-0.878-0.344-0.901-0.82c-0.023-0.475,0.342-0.876,0.82-0.901l4.255-0.201c0.475-0.022,0.878,0.344,0.901,0.82
					C263.984,239.316,263.706,239.676,263.318,239.775z"/>
				<path style="fill:#1F2326;" d="M253.648,240.412c-0.055,0.014-0.114,0.023-0.173,0.026l-2.601,0.123
					c-0.476,0.022-0.879-0.344-0.901-0.819c-0.023-0.476,0.345-0.879,0.819-0.901l2.601-0.123c0.476-0.022,0.878,0.344,0.901,0.819
					C254.314,239.952,254.036,240.313,253.648,240.412z"/>
			</g>
			<g>
				<g>
					
						<path style="fill:none;stroke:#1F2326;stroke-width:1.2975;stroke-linecap:round;stroke-linejoin:round;stroke-miterlimit:10;" d="
						M275.751,224.468c0,0,1.017,2.413-0.954,4.589"/>
					
						<path style="fill:none;stroke:#1F2326;stroke-width:1.2975;stroke-linecap:round;stroke-linejoin:round;stroke-miterlimit:10;" d="
						M278.418,228.208c0,0-2.834-0.222-2.593,1.138"/>
				</g>
				<path style="fill:#1F2326;" d="M275.584,227.986c-2.584-7.106-8.511-6.381-10.102-6.18c-1.591,0.201-6.553,2.952-8.855,1.896
					c-2.302-1.056-4.125-2.515-6.981-1.692c-3.655,1.053-8.193,7.87-3.449,12.591c3.942,3.923,16.3,1.605,21.134,0.509
					c0.161,1.707,0.914,4.255,4.017,4.074l1.316,2.93c0.283,5.262,5.027,7.706,5.027,7.706
					C285.082,230.043,275.584,227.986,275.584,227.986z"/>
			</g>
			<path style="fill:#E4BB9E;" d="M270.747,242.878c0.18,2.14,2.061,3.729,4.201,3.549c2.14-0.18,3.729-2.061,3.549-4.201
				c-0.18-2.14-2.061-3.729-4.201-3.549C272.156,238.857,270.567,240.738,270.747,242.878z"/>
			<path style="fill:#1F2326;" d="M268.496,232.56l1.299,14.477c0.117,1.311-0.373,2.649-1.426,3.438
				c-0.671,0.503-1.177,1.151-2.41,1.016c-3.47-0.377-1.941-2.733-8.929-2.088c-6.4,0.591-5.808,3.866-5.808,3.866
				s1.494,6.731,10.302,6.73s12.976-5.729,11.693-13.105l-1.438-15.28L268.496,232.56z"/>
		</g>
		<g>
			<path style="fill:#DCDBDD;" d="M265.821,319.531h-32.701v-3.69h32.701c1.019,0,1.845,0.826,1.845,1.845l0,0
				C267.665,318.706,266.839,319.531,265.821,319.531z"/>
			<g>
				<path style="fill:#DCDBDD;" d="M237.424,319.531h-43.332c-2.496,0-4.686-1.664-5.355-4.068l-8.45-30.357
					c-0.747-2.684,1.271-5.34,4.057-5.34h39.799c1.666,0,3.122,1.123,3.546,2.734L237.424,319.531z"/>
				<path style="fill:#FFFFFF;" d="M211.041,301.348c0,2.264-1.835,4.099-4.1,4.099c-2.264,0-4.1-1.835-4.1-4.099s1.836-4.1,4.1-4.1
					C209.206,297.248,211.041,299.084,211.041,301.348z"/>
			</g>
		</g>
		<g>
			<rect x="148.923" y="319.762" style="fill:#E2E2E2;" width="33.088" height="80.692"/>
			<rect x="182.011" y="319.762" style="fill:#A8A8A8;" width="36.209" height="80.692"/>
			<rect x="325.576" y="320.635" style="fill:#A8A8A8;" width="6.135" height="79.69"/>
			<rect x="368.255" y="321" style="fill:#A8A8A8;" width="6.135" height="79.69"/>
			<rect x="331.732" y="318.977" style="fill:#A8A8A8;" width="46.526" height="4.046"/>
			<rect x="133.61" y="318.977" style="fill:#C6C6C6;" width="198.123" height="4.046"/>
		</g>
		<g>
			<polygon style="fill:#E4BB9E;" points="250.068,375.342 258.015,392.975 276.755,392.975 270.464,375.342 			"/>
			<polygon style="fill:#E4BB9E;" points="231.062,375.342 221.737,392.975 240.477,392.975 248.392,375.342 			"/>
			<path d="M237.424,323.023c0,0-10.255,5.12-2.357,21.851l17.002,42.664h23.629l-21.216-64.515H237.424z"/>
			<path style="fill:#1F2326;" d="M311.532,323.023c0,0,6.998,18.088-14.422,22.43h-34.75l-18.824,42.085h-21.799l22.848-64.515
				H311.532z"/>
			<path style="fill:#121932;" d="M276.755,392.975l3.066,7.479h-35.079c0,0,1.432-7.479,13.272-7.479H276.755z"/>
			<path style="fill:#121932;" d="M240.477,392.975l-2.951,7.479h-30.614c0,0,1.432-7.479,13.272-7.479H240.477z"/>
		</g>
	</g>
	<g>
		<g>
			<g>
				<polygon style="fill:#885042;" points="135.887,254.718 138.477,275.641 150.965,310.534 145.465,315.177 122.271,276.938 
					115.205,252.987 				"/>
				<polygon style="fill:#483DE5;" points="132.283,234.274 139.667,260.388 116.114,268.453 125.472,245.807 				"/>
				<path style="fill:#885042;" d="M150.965,310.534l14.172,4.182c1.346,0.392,2.617,0.932,3.025,2.261
					c0.201,0.655,0.082,1.368-0.21,1.988l-0.016,0.034c-0.567,1.203-1.878,1.867-3.183,1.612l-11.825-1.549l1.776,3.062
					c0.369,0.544,0.356,1.262-0.034,1.792l0,0c-0.491,0.668-1.419,0.832-2.11,0.375l-4.158-2.757
					c-1.128-0.748-1.925-1.902-2.225-3.222l-0.711-3.133l1.678-4.644H150.965z"/>
			</g>
			<path style="fill:#5843F1;" d="M111.474,222.613c0,0-17.903-7.342-28.7,9.502c-10.798,16.844-19.319,54.419-19.319,54.419
				l42.621,6.478l23.591-47.852c2.419-4.381,4.595-9.878,1.081-13.44c-1.587-1.609-3.828-3.144-6.988-4.364
				C111.474,222.613,111.474,222.613,111.474,222.613z"/>
			<g>
				<path style="fill:#996150;" d="M117.662,265.513l-16.782-36.422l-14.895,19.004l17.278,27.375
					c1.559,2.47,4.252,3.995,7.172,4.06l36.413,0.814l5.136-6.001L117.662,265.513z"/>
				<path style="fill:#996150;" d="M151.985,274.344l15.675,1.98l6.281,2.59c0.696,0.287,1.043,1.07,0.788,1.778l0,0
					c-0.26,0.723-1.052,1.104-1.779,0.856l-6.214-2.121l-4.439-0.656l1.799,1.859c0.861,0.89,1.443,2.013,1.675,3.23l0.199,1.043
					c0.279,1.467-0.668,2.888-2.13,3.194l-3.162,0.663c-1.362,0.286-2.722-0.495-3.162-1.815l-0.812-2.436l-2.904-1.716
					c0,0-4.287,0.999-7.93-2.507c-3.112-2.995,0.63-3.566,0.98-3.698C147.198,276.456,151.985,274.344,151.985,274.344z"/>
				<polygon style="fill:#5843F1;" points="102.806,226.492 115.994,253.04 91.696,267.935 81.556,241.798 				"/>
				<polyline style="fill:none;stroke:#483DE5;stroke-width:0.9825;stroke-miterlimit:10;" points="86.086,254.718 91.696,267.935 
					114.029,254.023 103.028,230.895 				"/>
			</g>
		</g>
		<g>
			<g>
				<path style="fill:#996150;" d="M114.594,208.785l-6.695,12.069c-2.28,4.11-0.683,9.292,3.516,11.405h0
					c3.967,1.997,8.803,0.505,10.956-3.379l4.727-8.526c0.378-0.682,0.281-1.529-0.242-2.108l-8.905-9.85
					c-0.398-0.44-0.985-0.659-1.574-0.587l-0.408,0.05C115.388,207.93,114.877,208.274,114.594,208.785z"/>
				<path style="fill:#885042;" d="M117.95,208.397c0,0-9.478,14.962,4.42,20.484l2.897-5.668L117.95,208.397z"/>
			</g>
			<path style="fill:#885042;" d="M142.345,213.609c-0.5,2.151-2.648,3.49-4.799,2.99c-2.151-0.499-3.49-2.648-2.99-4.799
				c0.5-2.151,2.648-3.49,4.799-2.99C141.506,209.309,142.845,211.458,142.345,213.609z"/>
			<path style="fill:#996150;" d="M131.75,190.108c-18.149-4.344-17.324,13.975-17.324,13.975l2.544,0.218l-1.545,6.653
				c-1.481,6.377,2.489,12.748,8.866,14.229l0.431,0.1c6.377,1.481,12.748-2.489,14.229-8.866l2.33-10.033h0
				C141.28,206.385,146.147,193.555,131.75,190.108z"/>
			<g>
				<path style="fill:#1F2326;" d="M129.877,209.121c-0.161,0.509-0.704,0.792-1.213,0.632c-0.509-0.161-0.792-0.704-0.632-1.213
					c0.161-0.509,0.704-0.792,1.213-0.632C129.755,208.068,130.038,208.612,129.877,209.121z"/>
				<path style="fill:#1F2326;" d="M137.937,210.967c-0.161,0.509-0.704,0.792-1.213,0.632s-0.792-0.704-0.631-1.213
					c0.161-0.509,0.704-0.792,1.213-0.631C137.815,209.914,138.098,210.457,137.937,210.967z"/>
				<path style="fill:#885042;" d="M131.958,215.333c0.372,0.071,0.712,0.047,1.017-0.069c0.652-0.248,0.872-0.818,0.895-0.883
					l0.695-4.029c0.036-0.209-0.082-0.389-0.315-0.445c-0.21-0.036-0.408,0.105-0.445,0.315l-0.676,3.957l-0.001,0
					c-0.008-0.002-0.134,0.257-0.437,0.368c-0.344,0.124-0.823,0.031-1.393-0.281c-0.189-0.095-0.422-0.031-0.523,0.155
					c-0.101,0.187-0.032,0.421,0.155,0.523C131.295,215.143,131.638,215.273,131.958,215.333z"/>
				<path style="fill:#1F2326;" d="M127.077,205.478c0.054,0.022,0.112,0.04,0.172,0.052l4.3,0.834
					c0.48,0.093,0.944-0.221,1.038-0.701c0.094-0.48-0.218-0.942-0.701-1.038l-4.3-0.834c-0.48-0.093-0.944,0.221-1.038,0.701
					C126.466,204.912,126.696,205.32,127.077,205.478z"/>
				<path style="fill:#1F2326;" d="M136.822,207.556c0.054,0.022,0.112,0.04,0.172,0.052l2.629,0.51
					c0.481,0.093,0.945-0.22,1.038-0.7c0.094-0.48-0.221-0.945-0.7-1.038l-2.629-0.51c-0.481-0.093-0.945,0.22-1.038,0.7
					C136.212,206.99,136.442,207.398,136.822,207.556z"/>
			</g>
			<g>
				<path style="fill:#1F2326;" d="M121.2,204.404l-1.788,7.507c-0.313,1.316-0.012,2.751,0.943,3.709
					c0.609,0.611,1.028,1.345,2.302,1.391c3.587,0.129,2.38-2.494,9.394-0.805c6.425,1.547,5.338,4.792,5.338,4.792
					s-2.515,6.628-11.478,5.325c-8.963-1.304-12.356-7.748-9.96-15.064l1.409-7.582L121.2,204.404z"/>
				<path style="fill:#1F2326;" d="M121.2,204.404c0,0,2.6-5.654-6.024-6.48c0,0-1.002,3.879-0.75,6.16l4.003,1.105L121.2,204.404z"
					/>
			</g>
			<path style="fill:#996150;" d="M117.438,205.988c-0.17,2.487-2.325,4.366-4.812,4.195s-4.366-2.325-4.195-4.812
				c0.17-2.487,2.325-4.366,4.812-4.195C115.73,201.347,117.609,203.501,117.438,205.988z"/>
		</g>
		<g>
			<g>
				<rect x="108.828" y="384.621" style="fill:#996150;" width="17.178" height="8.353"/>
				<path style="fill:#3D437E;" d="M106.076,293.012l21.5,37.199c2.223,4.583,3.374,9.611,3.365,14.705l-2.069,43.052h-21.16
					l1.305-46.458l-26.723-43.792l-0.738-8.517L106.076,293.012z"/>
				
					<line style="fill:none;stroke:#333A6E;stroke-width:0.9825;stroke-miterlimit:10;" x1="108.285" y1="379.91" x2="129.351" y2="379.91"/>
				<path style="fill:#121932;" d="M108.828,392.975l0.156,7.479h30.614c0,0-1.432-7.479-13.272-7.479H108.828z"/>
			</g>
			<g>
				<polygon style="fill:#996150;" points="73.521,384.621 56.342,384.621 53.199,392.975 70.378,392.975 				"/>
				<path style="fill:#3D437E;" d="M63.455,286.534l4.447,55.474l-14.838,45.96h22.022l14.533-41.02
					c0.573-1.738,0.98-3.527,1.215-5.342L94.9,297.87l4.267-5.931L63.455,286.534z"/>
				<polyline style="fill:none;stroke:#333A6E;stroke-width:0.9825;stroke-miterlimit:10;" points="93.291,315.177 93.597,311.892 
					101.04,304.329 				"/>
				
					<line style="fill:none;stroke:#333A6E;stroke-width:0.9825;stroke-miterlimit:10;" x1="55.666" y1="379.91" x2="77.941" y2="379.91"/>
				<path style="fill:#121932;" d="M53.185,392.975l-2.672,7.479h33.442c0,0-1.432-7.479-13.272-7.479H53.185z"/>
				<path style="fill:#3D437E;" d="M63.455,285.602c0,0-5.252,12.726,0.776,29.575c6.028,16.849,15.223,1.431,15.223,1.431
					L63.455,285.602z"/>
			</g>
		</g>
	</g>
	<g>
		<g>
			<g>
				<path style="fill:#5D47F1;" d="M343.526,216.84h-55.362c-2.455,0-4.445-1.99-4.445-4.445v-12.792
					c0-2.455,1.99-4.445,4.445-4.445h55.362c2.455,0,4.445,1.99,4.445,4.445v12.792C347.971,214.85,345.981,216.84,343.526,216.84z"
					/>
				<path style="fill:#5D47F1;" d="M291.387,212.61v8.728c0,1.268,1.533,1.902,2.429,1.006l9.734-9.734H291.387z"/>
			</g>
			
				<line style="fill:none;stroke:#FFFFFF;stroke-width:1.9437;stroke-linecap:round;stroke-linejoin:round;stroke-miterlimit:10;" x1="294.825" y1="202.832" x2="336.879" y2="202.832"/>
			
				<line style="fill:none;stroke:#FFFFFF;stroke-width:1.9437;stroke-linecap:round;stroke-linejoin:round;stroke-miterlimit:10;" x1="294.825" y1="208.149" x2="316.615" y2="208.149"/>
		</g>
		<g>
			<g>
				<path style="fill:#DD72BB;" d="M210.715,191.203h-55.362c-2.455,0-4.445-1.99-4.445-4.445v-21.539
					c0-2.455,1.99-4.445,4.445-4.445h55.362c2.455,0,4.445,1.99,4.445,4.445v21.539C215.16,189.213,213.17,191.203,210.715,191.203z
					"/>
				<path style="fill:#DD72BB;" d="M158.576,186.973v8.728c0,1.268,1.533,1.903,2.429,1.006l9.734-9.734H158.576z"/>
			</g>
			
				<line style="fill:none;stroke:#FFFFFF;stroke-width:1.9437;stroke-linecap:round;stroke-linejoin:round;stroke-miterlimit:10;" x1="162.014" y1="168.448" x2="204.069" y2="168.448"/>
			
				<line style="fill:none;stroke:#FFFFFF;stroke-width:1.9437;stroke-linecap:round;stroke-linejoin:round;stroke-miterlimit:10;" x1="162.014" y1="175.017" x2="176.483" y2="175.017"/>
			
				<line style="fill:none;stroke:#FFFFFF;stroke-width:1.9437;stroke-linecap:round;stroke-linejoin:round;stroke-miterlimit:10;" x1="162.014" y1="182.512" x2="192.777" y2="182.512"/>
		</g>
	</g>
</g>
<g id="DESIGNED_BY_FREEPIK">
	<g>
		<g id="XMLID_319_">
			<g id="XMLID_338_">
				<path id="XMLID_346_" style="fill:#222221;" d="M260.104,465.465c-0.432,0.443-0.803,0.931-1.108,1.453l-0.465-0.241
					c-0.067-0.298-0.349-0.503-0.659-0.466c-0.331,0.039-0.568,0.339-0.529,0.67s0.339,0.568,0.67,0.529
					c0.065-0.008,0.127-0.026,0.184-0.052l0.451,0.234c-0.251,0.554-0.433,1.139-0.539,1.744l0.746,0.132
					c0.23-1.306,0.85-2.507,1.792-3.473L260.104,465.465z"/>
				<path id="XMLID_345_" style="fill:#222221;" d="M265.592,463.163c-0.171,0-0.341,0.006-0.51,0.017l-0.074-0.626
					c0.188-0.149,0.296-0.389,0.266-0.645c-0.046-0.393-0.402-0.674-0.795-0.628s-0.674,0.402-0.628,0.795
					c0.03,0.254,0.189,0.461,0.405,0.564l0.073,0.624c-0.714,0.116-1.403,0.332-2.06,0.646l0.327,0.684
					c0.934-0.447,1.942-0.673,2.995-0.673c0.496,0,0.993,0.053,1.475,0.158l0.161-0.741
					C266.693,463.222,266.142,463.163,265.592,463.163z"/>
				<path id="XMLID_344_" style="fill:#222221;" d="M272.194,465.711c0.331-0.04,0.566-0.341,0.525-0.672
					c-0.04-0.331-0.341-0.566-0.672-0.526c-0.309,0.038-0.535,0.304-0.53,0.609l-0.416,0.363c-0.418-0.43-0.89-0.813-1.408-1.139
					l-0.404,0.641c1.134,0.715,2.021,1.726,2.563,2.925l0.691-0.313c-0.251-0.554-0.568-1.072-0.942-1.545l0.402-0.351
					C272.065,465.716,272.129,465.719,272.194,465.711z"/>
				<path id="XMLID_343_" style="fill:#222221;" d="M265.044,473.372c-0.386,0.023-0.775,0.035-1.157,0.035
					c-0.88,0-1.733-0.061-2.478-0.179c-0.39-0.062-0.846-0.155-1.27-0.292c1.046,1.861,3.069,3.125,5.388,3.125
					c2.855,0,5.262-1.916,5.95-4.504c-0.682,0.449-1.505,0.825-2.459,1.123C267.839,473.047,266.464,473.286,265.044,473.372z"/>
				<path id="XMLID_339_" style="fill:#222221;" d="M265.592,464.68c-3.352,0-6.08,2.666-6.08,5.943
					c0,0.426,0.046,0.849,0.137,1.261c0.674,0.483,2.706,0.89,5.348,0.731c2.879-0.173,5.297-0.957,6.672-2.159
					c-0.005-0.195-0.021-0.39-0.045-0.582C271.244,466.913,268.65,464.68,265.592,464.68z M263.432,471.194
					c-1.02,0-1.85-0.83-1.85-1.85c0-1.02,0.83-1.85,1.85-1.85c1.02,0,1.85,0.83,1.85,1.85
					C265.282,470.365,264.452,471.194,263.432,471.194z M268.17,470.286c-0.75,0-1.36-0.61-1.36-1.36s0.61-1.361,1.36-1.361
					c0.75,0,1.361,0.61,1.361,1.361S268.92,470.286,268.17,470.286z"/>
			</g>
			<path id="XMLID_336_" style="fill:#222221;" d="M281.595,466.547c-0.295-0.116-0.806-0.309-1.382-0.237
				c-0.551,0.069-0.844,0.341-0.844,1.007v0.866h2.228v1.717h-2.228v5.455h-1.932v-5.455h-1.34v-1.717h1.34v-0.888
				c0-1.68,0.896-2.783,2.568-2.783c0.642,0,1.157,0.122,1.59,0.308L281.595,466.547z"/>
			<path id="XMLID_334_" style="fill:#222221;" d="M286.298,469.879c-0.177-0.03-0.358-0.046-0.526-0.046
				c-0.896,0-1.51,0.548-1.51,1.614v3.908h-1.932v-7.172h1.873v0.785c0.451-0.673,1.14-0.977,2.021-0.977
				c0.414,0,0.848,0.128,1.094,0.337L286.298,469.879z"/>
			<path id="XMLID_331_" style="fill:#222221;" d="M293.965,471.757c0,0.222-0.015,0.489-0.037,0.651h-5.085
				c0.207,1.036,0.933,1.488,1.843,1.488c0.622,0,1.295-0.252,1.813-0.688l1.132,1.243c-0.814,0.748-1.85,1.088-3.057,1.088
				c-2.198,0-3.723-1.495-3.723-3.753c0-2.258,1.48-3.797,3.627-3.797C292.544,467.99,293.958,469.522,293.965,471.757z
				 M288.851,471.091h3.175c-0.177-0.918-0.733-1.436-1.562-1.436C289.554,469.655,289.021,470.203,288.851,471.091z"/>
			<path id="XMLID_328_" style="fill:#222221;" d="M301.618,471.757c0,0.222-0.015,0.489-0.037,0.651h-5.085
				c0.207,1.036,0.932,1.488,1.843,1.488c0.622,0,1.295-0.252,1.813-0.688l1.132,1.243c-0.814,0.748-1.85,1.088-3.057,1.088
				c-2.198,0-3.723-1.495-3.723-3.753c0-2.258,1.48-3.797,3.627-3.797C300.197,467.99,301.611,469.522,301.618,471.757z
				 M296.504,471.091h3.175c-0.178-0.918-0.733-1.436-1.562-1.436C297.207,469.655,296.674,470.203,296.504,471.091z"/>
			<path id="XMLID_325_" style="fill:#222221;" d="M309.964,471.764c0,2.154-1.495,3.775-3.471,3.775
				c-0.962,0-1.643-0.378-2.109-0.933v3.708h-1.924v-10.133h1.887v0.792c0.466-0.585,1.155-0.984,2.139-0.984
				C308.469,467.99,309.964,469.61,309.964,471.764z M304.287,471.764c0,1.132,0.747,1.976,1.843,1.976
				c1.14,0,1.85-0.881,1.85-1.976c0-1.095-0.71-1.976-1.85-1.976C305.035,469.788,304.287,470.632,304.287,471.764z"/>
			<path id="XMLID_322_" style="fill:#222221;" d="M313.068,465.836c0,0.696-0.54,1.229-1.236,1.229
				c-0.696,0-1.229-0.533-1.229-1.229c0-0.696,0.533-1.243,1.229-1.243C312.527,464.592,313.068,465.14,313.068,465.836z
				 M312.809,475.354h-1.932v-7.172h1.932V475.354z"/>
			<path id="XMLID_320_" style="fill:#222221;" d="M316.032,470.736l2.702-2.554h2.368l-3.479,3.375l3.501,3.797h-2.376
				l-2.716-2.901v2.901H314.1v-10.658h1.932V470.736z"/>
		</g>
		<g>
			<path style="fill:#222221;" d="M184.412,475.289v-1.055c-0.527,0.718-1.391,1.23-2.388,1.23c-1.846,0-3.149-1.406-3.149-3.706
				c0-2.256,1.289-3.721,3.149-3.721c0.952,0,1.816,0.469,2.388,1.245v-3.765h1.099v9.77H184.412z M184.412,473.37v-3.208
				c-0.395-0.615-1.245-1.143-2.124-1.143c-1.421,0-2.27,1.172-2.27,2.739c0,1.567,0.85,2.724,2.27,2.724
				C183.168,474.483,184.017,473.986,184.412,473.37z"/>
			<path style="fill:#222221;" d="M186.932,471.744c0-2.051,1.465-3.706,3.486-3.706c2.139,0,3.398,1.67,3.398,3.794v0.279h-5.727
				c0.088,1.333,1.025,2.446,2.549,2.446c0.805,0,1.626-0.322,2.182-0.894l0.527,0.718c-0.703,0.703-1.655,1.084-2.812,1.084
				C188.44,475.465,186.932,473.956,186.932,471.744z M190.403,468.947c-1.509,0-2.256,1.274-2.314,2.358h4.643
				C192.718,470.25,192.015,468.947,190.403,468.947z"/>
			<path style="fill:#222221;" d="M194.607,474.351l0.571-0.791c0.469,0.542,1.362,1.011,2.329,1.011c1.084,0,1.67-0.513,1.67-1.216
				c0-1.714-4.38-0.659-4.38-3.281c0-1.098,0.952-2.036,2.636-2.036c1.201,0,2.051,0.454,2.622,1.026l-0.513,0.762
				c-0.424-0.513-1.201-0.894-2.109-0.894c-0.967,0-1.567,0.483-1.567,1.113c0,1.552,4.38,0.527,4.38,3.281
				c0,1.187-0.952,2.138-2.783,2.138C196.306,475.465,195.325,475.113,194.607,474.351z"/>
			<path style="fill:#222221;" d="M201.477,466.471c0-0.41,0.337-0.747,0.732-0.747c0.41,0,0.747,0.337,0.747,0.747
				c0,0.41-0.337,0.732-0.747,0.732C201.814,467.203,201.477,466.881,201.477,466.471z M201.667,475.289v-7.075h1.099v7.075H201.667
				z"/>
			<path style="fill:#222221;" d="M204.582,477.105l0.556-0.82c0.586,0.703,1.289,0.967,2.3,0.967c1.172,0,2.27-0.571,2.27-2.124
				v-1.011c-0.513,0.718-1.377,1.26-2.373,1.26c-1.845,0-3.149-1.377-3.149-3.662c0-2.27,1.289-3.677,3.149-3.677
				c0.952,0,1.802,0.469,2.373,1.245v-1.069h1.098v6.87c0,2.344-1.641,3.076-3.369,3.076
				C206.237,478.16,205.417,477.926,204.582,477.105z M209.709,473.253v-3.091c-0.381-0.615-1.23-1.143-2.109-1.143
				c-1.421,0-2.27,1.128-2.27,2.695c0,1.553,0.849,2.695,2.27,2.695C208.478,474.41,209.328,473.868,209.709,473.253z"/>
			<path style="fill:#222221;" d="M217.413,475.289v-4.629c0-1.245-0.63-1.641-1.582-1.641c-0.865,0-1.685,0.527-2.095,1.099v5.17
				h-1.099v-7.075h1.099v1.025c0.498-0.586,1.465-1.201,2.519-1.201c1.48,0,2.256,0.747,2.256,2.285v4.966H217.413z"/>
			<path style="fill:#222221;" d="M219.932,471.744c0-2.051,1.465-3.706,3.486-3.706c2.139,0,3.398,1.67,3.398,3.794v0.279h-5.727
				c0.088,1.333,1.025,2.446,2.549,2.446c0.806,0,1.626-0.322,2.183-0.894l0.527,0.718c-0.703,0.703-1.655,1.084-2.812,1.084
				C221.441,475.465,219.932,473.956,219.932,471.744z M223.404,468.947c-1.509,0-2.256,1.274-2.314,2.358h4.643
				C225.718,470.25,225.015,468.947,223.404,468.947z"/>
			<path style="fill:#222221;" d="M233.35,475.289v-1.055c-0.527,0.718-1.392,1.23-2.388,1.23c-1.846,0-3.149-1.406-3.149-3.706
				c0-2.256,1.289-3.721,3.149-3.721c0.952,0,1.817,0.469,2.388,1.245v-3.765h1.098v9.77H233.35z M233.35,473.37v-3.208
				c-0.396-0.615-1.245-1.143-2.124-1.143c-1.421,0-2.27,1.172-2.27,2.739c0,1.567,0.849,2.724,2.27,2.724
				C232.105,474.483,232.954,473.986,233.35,473.37z"/>
			<path style="fill:#222221;" d="M239.692,475.289v-9.77h1.098v3.765c0.572-0.776,1.421-1.245,2.388-1.245
				c1.845,0,3.149,1.465,3.149,3.721c0,2.299-1.304,3.706-3.149,3.706c-0.996,0-1.86-0.513-2.388-1.23v1.055H239.692z
				 M242.9,474.483c1.436,0,2.285-1.157,2.285-2.724c0-1.568-0.85-2.739-2.285-2.739c-0.864,0-1.728,0.527-2.109,1.143v3.208
				C241.171,473.986,242.036,474.483,242.9,474.483z"/>
			<path style="fill:#222221;" d="M247.528,477.061c0.161,0.073,0.425,0.117,0.601,0.117c0.483,0,0.805-0.161,1.055-0.747
				l0.469-1.069l-2.959-7.148h1.187l2.358,5.8l2.344-5.8h1.201l-3.545,8.51c-0.425,1.025-1.143,1.421-2.08,1.435
				c-0.234,0-0.601-0.044-0.805-0.103L247.528,477.061z"/>
		</g>
	</g>
</g>
</svg>
